<svg xmlns="http://www.w3.org/2000/svg" xmlns:xlink="http://www.w3.org/1999/xlink" width="500" zoomAndPan="magnify" viewBox="0 0 375 374.999991" height="500" preserveAspectRatio="xMidYMid meet" version="1.0"><defs><clipPath id="ad7015bdfb"><path d="M 0 44.691406 L 375 44.691406 L 375 330.441406 L 0 330.441406 Z M 0 44.691406 " clip-rule="nonzero"/></clipPath></defs><rect x="-37.5" width="450" fill="#ffffff" y="-37.499999" height="449.999989" fill-opacity="1"/><rect x="-37.5" width="450" fill="#e12726" y="-37.499999" height="449.999989" fill-opacity="1"/><g clip-path="url(#ad7015bdfb)"><path fill="#e12726" d="M 0.00390625 44.691406 L 374.996094 44.691406 L 374.996094 330.441406 L 0.00390625 330.441406 Z M 0.00390625 44.691406 " fill-opacity="1" fill-rule="nonzero"/></g><path fill="#ffffff" d="M 324.453125 172.90625 C 321.363281 173.824219 317.941406 174.660156 316.441406 174.660156 C 318.441406 170.902344 320.949219 167.894531 323.453125 165.46875 C 324.957031 163.964844 327.457031 162.046875 329.964844 162.046875 C 332.132812 162.046875 333.050781 162.964844 333.050781 165.054688 C 333.050781 169.0625 328.875 171.484375 324.453125 172.90625 Z M 328.792969 186.441406 C 329.292969 185.769531 328.375 184.851562 327.710938 185.769531 C 325.621094 188.109375 321.949219 191.199219 318.027344 191.199219 C 314.6875 191.199219 312.765625 188.945312 312.765625 185.269531 C 312.765625 182.511719 314.1875 179.003906 315.273438 177.25 C 317.695312 176.75 322.535156 175.660156 324.871094 174.992188 C 332.800781 172.570312 337.304688 169.816406 337.304688 164.71875 C 337.304688 161.210938 334.886719 159.957031 331.628906 159.957031 C 322.035156 159.957031 307.675781 173.65625 307.675781 186.6875 C 307.675781 190.867188 310.347656 194.121094 314.941406 194.121094 C 320.949219 194.121094 325.707031 190.449219 328.792969 186.441406 Z M 332.550781 97.222656 C 332.886719 97.222656 333.300781 96.976562 333.21875 96.472656 L 331.796875 86.785156 C 331.628906 86.113281 331.382812 85.949219 330.964844 85.949219 C 330.710938 85.949219 330.464844 86.113281 330.210938 86.535156 C 329.792969 87.367188 329.128906 88.117188 327.875 88.117188 C 325.707031 88.117188 323.703125 86.535156 318.527344 86.535156 C 311.765625 86.535156 302.835938 89.457031 302.835938 99.230469 C 302.835938 109.003906 310.683594 112.261719 317.441406 114.683594 C 324.535156 117.273438 330.210938 119.277344 330.210938 126.628906 C 330.210938 134.898438 324.371094 137.570312 318.859375 137.570312 C 312.765625 137.570312 305.59375 134.648438 303.003906 125.042969 C 302.753906 124.207031 302.503906 124.039062 301.917969 124.039062 C 301.421875 124.039062 301 124.371094 301 125.289062 L 301 137.742188 C 301 138.488281 301.417969 138.824219 301.832031 138.824219 C 302.167969 138.824219 302.503906 138.574219 302.671875 138.242188 C 303.171875 137.488281 303.757812 136.816406 305.175781 136.816406 C 307.929688 136.816406 311.183594 140.160156 319.113281 140.160156 C 326.039062 140.160156 337.808594 137.988281 337.808594 124.289062 C 337.808594 118.859375 335.554688 111.84375 322.367188 108.171875 C 313.019531 105.578125 310.011719 101.652344 310.011719 96.808594 C 310.011719 92.714844 312.433594 88.703125 319.195312 88.703125 C 322.535156 88.703125 327.957031 89.621094 331.628906 96.722656 C 332.046875 97.222656 332.300781 97.222656 332.550781 97.222656 Z M 292.40625 94.886719 C 293.402344 94.886719 294.40625 94.632812 294.574219 94.46875 C 294.488281 95.890625 293.238281 98.0625 289.816406 98.726562 C 289.566406 98.8125 289.316406 99.066406 289.316406 99.398438 C 289.316406 99.730469 289.566406 100.066406 290.070312 100.066406 C 295.074219 100.066406 297.914062 95.554688 297.914062 91.796875 C 297.914062 88.457031 295.660156 86.449219 292.90625 86.449219 C 290.902344 86.449219 288.3125 87.453125 288.3125 90.707031 C 288.3125 93.714844 290.484375 94.886719 292.40625 94.886719 Z M 301.167969 164.21875 C 301.167969 166.308594 300.335938 169.148438 298.578125 172.238281 C 295.160156 177.75 292.484375 178.835938 290.148438 178.835938 C 288.148438 178.835938 287.3125 177.25 287.3125 174.914062 C 287.3125 172.90625 288.148438 170.234375 289.730469 167.894531 C 292.070312 164.21875 295.324219 161.128906 298.246094 161.128906 C 300.164062 161.128906 301.167969 162.128906 301.167969 164.21875 Z M 285.226562 207.40625 C 277.214844 207.40625 274.792969 202.726562 274.792969 200.472656 C 274.792969 198.300781 275.628906 196.878906 277.878906 195.375 C 279.382812 194.289062 281.636719 193.203125 283.390625 192.539062 C 285.390625 193.371094 288.3125 195.125 289.316406 196.046875 C 293.65625 199.054688 294.488281 200.804688 294.488281 202.394531 C 294.488281 206.402344 288.3125 207.40625 285.226562 207.40625 Z M 310.597656 162.964844 C 311.433594 162.964844 312.265625 162.546875 312.265625 161.042969 C 312.265625 159.707031 311.015625 159.292969 309.847656 159.292969 C 308.511719 159.292969 306.84375 159.625 305.089844 160.792969 C 304.671875 161.128906 303.589844 161.628906 302.917969 161.210938 C 301.585938 160.292969 300.332031 159.625 297.078125 159.625 C 293.820312 159.625 289.0625 161.546875 285.976562 165.722656 C 283.808594 168.8125 283.390625 170.984375 283.390625 173.15625 C 283.390625 175.328125 284.308594 176.917969 284.890625 177.835938 C 285.058594 178.082031 285.140625 178.167969 285.140625 178.421875 C 285.140625 178.921875 284.472656 179.253906 283.386719 179.585938 C 281.472656 180.257812 278.210938 182.09375 278.210938 185.4375 C 278.210938 187.605469 279.96875 189.695312 281.886719 191.035156 C 281.886719 191.035156 277.878906 192.117188 274.707031 193.875 C 272.203125 195.207031 269.449219 197.382812 269.449219 200.386719 C 269.449219 203.898438 272.457031 209.578125 284.726562 209.578125 C 291.90625 209.578125 296.410156 206.988281 298.160156 204.984375 C 299.496094 203.480469 299.664062 201.722656 299.664062 200.640625 C 299.664062 196.710938 295.324219 193.039062 290.566406 190.363281 C 287.480469 188.609375 283.054688 186.523438 283.054688 183.433594 C 283.054688 182.59375 283.304688 181.761719 284.140625 181.257812 C 284.726562 180.84375 285.644531 180.589844 286.644531 180.589844 C 287.980469 180.589844 289.730469 181.011719 290.980469 181.011719 C 294.90625 181.011719 300.164062 179.671875 303.503906 172.738281 C 304.339844 170.816406 304.753906 168.8125 304.753906 167.140625 C 304.753906 164.972656 304.421875 164.472656 304.421875 163.46875 C 304.421875 162.632812 305.257812 162.128906 306.925781 162.128906 C 309.179688 162.046875 309.179688 162.964844 310.597656 162.964844 Z M 265.777344 172.90625 C 262.691406 173.824219 259.351562 174.660156 257.765625 174.660156 C 259.855469 170.902344 262.355469 167.894531 264.859375 165.46875 C 266.363281 163.964844 268.863281 162.046875 271.371094 162.046875 C 273.457031 162.046875 274.460938 162.964844 274.460938 165.054688 C 274.460938 169.0625 270.285156 171.484375 265.777344 172.90625 Z M 270.121094 186.441406 C 270.703125 185.769531 269.703125 184.851562 269.03125 185.769531 C 266.945312 188.109375 263.273438 191.199219 259.351562 191.199219 C 255.929688 191.199219 254.09375 188.945312 254.09375 185.269531 C 254.09375 182.511719 255.511719 179.003906 256.597656 177.25 C 259.015625 176.75 263.941406 175.660156 266.195312 174.992188 C 274.207031 172.570312 278.632812 169.816406 278.632812 164.71875 C 278.632812 161.210938 276.210938 159.957031 272.957031 159.957031 C 263.359375 159.957031 249 173.65625 249 186.6875 C 249 190.867188 251.757812 194.121094 256.347656 194.121094 C 262.269531 194.121094 267.027344 190.449219 270.121094 186.441406 Z M 248.917969 150.101562 C 248.917969 150.355469 248.835938 150.769531 248.582031 151.1875 C 242.742188 163.964844 236.898438 176.664062 231.222656 189.445312 C 230.890625 190.113281 230.390625 191.367188 230.390625 192.285156 C 230.390625 193.371094 231.222656 194.289062 232.308594 194.289062 C 232.894531 194.289062 233.644531 194.042969 234.144531 193.875 C 237.320312 192.617188 240.65625 189.109375 242.660156 186.101562 C 243.074219 185.4375 242.328125 184.851562 241.824219 185.269531 C 240.992188 186.023438 238.734375 189.027344 236.398438 190.363281 C 235.980469 190.613281 235.5625 190.613281 235.816406 189.695312 L 253.925781 149.433594 C 254.261719 148.683594 254.34375 148.265625 254.34375 147.84375 C 254.34375 147.34375 254.011719 147.09375 253.507812 147.09375 C 252.675781 147.09375 251.589844 147.34375 250.339844 147.425781 C 249.253906 147.511719 247.332031 147.679688 245.664062 147.765625 C 245.25 147.765625 244.996094 148.179688 244.996094 148.515625 C 244.996094 148.929688 245.328125 149.183594 245.828125 149.183594 C 246.667969 149.183594 247.585938 149.183594 248.503906 149.433594 C 248.835938 149.601562 248.917969 149.851562 248.917969 150.101562 Z M 280.800781 122.285156 C 280.800781 117.855469 284.054688 117.441406 286.894531 117.191406 C 287.980469 117.023438 288.230469 115.265625 286.644531 115.265625 L 264.691406 115.265625 C 263.1875 115.265625 263.1875 117.273438 264.691406 117.355469 C 269.03125 117.609375 272.539062 118.441406 272.539062 122.621094 L 272.539062 130.554688 C 272.539062 132.308594 271.703125 133.5625 270.703125 134.230469 C 266.867188 137.402344 262.023438 137.65625 259.183594 137.65625 C 245.242188 137.65625 238.988281 125.628906 238.988281 113.597656 C 238.988281 103.824219 243.910156 88.539062 260.019531 88.539062 C 274.460938 88.539062 279.636719 97.894531 281.386719 101.484375 C 281.972656 102.574219 283.308594 102.320312 283.308594 101.484375 L 283.308594 89.960938 C 283.308594 88.871094 281.71875 88.621094 281.386719 89.960938 C 281.054688 91.292969 280.214844 92.128906 279.132812 92.128906 C 278.296875 92.128906 277.214844 91.460938 276.796875 91.210938 C 272.457031 88.457031 268.285156 86.28125 260.019531 86.28125 C 246.667969 86.28125 230.222656 92.964844 230.222656 113.261719 C 230.222656 133.730469 245.664062 140.078125 259.183594 140.078125 C 272.457031 140.078125 279.46875 133.308594 280.71875 132.476562 L 280.71875 122.285156 Z M 232.726562 150.101562 C 232.726562 150.355469 232.640625 150.769531 232.394531 151.1875 C 226.550781 163.964844 220.710938 176.664062 215.035156 189.445312 C 214.78125 190.113281 214.195312 191.367188 214.195312 192.285156 C 214.195312 193.371094 215.035156 194.289062 216.117188 194.289062 C 216.703125 194.289062 217.453125 194.042969 217.953125 193.875 C 221.125 192.617188 224.464844 189.109375 226.464844 186.101562 C 226.882812 185.4375 226.132812 184.851562 225.632812 185.269531 C 224.882812 186.023438 222.546875 189.027344 220.207031 190.363281 C 219.789062 190.613281 219.371094 190.613281 219.625 189.695312 L 237.734375 149.433594 C 238.070312 148.683594 238.152344 148.265625 238.152344 147.84375 C 238.152344 147.34375 237.816406 147.09375 237.234375 147.09375 C 236.398438 147.09375 235.316406 147.34375 234.0625 147.425781 C 232.976562 147.511719 231.058594 147.679688 229.386719 147.765625 C 228.972656 147.765625 228.71875 148.179688 228.71875 148.515625 C 228.71875 148.929688 229.054688 149.183594 229.554688 149.183594 C 230.390625 149.183594 231.308594 149.183594 232.226562 149.433594 C 232.640625 149.601562 232.726562 149.851562 232.726562 150.101562 Z M 206.9375 160.960938 C 210.191406 160.960938 210.941406 163.71875 210.859375 166.390625 C 210.859375 175.160156 200.84375 191.867188 194.082031 191.867188 C 191.328125 191.867188 190.160156 189.863281 190.160156 187.273438 C 190.160156 177.335938 200.09375 160.960938 206.9375 160.960938 Z M 205.433594 158.953125 C 195.671875 158.953125 186.742188 171.234375 186.742188 183.851562 C 186.742188 189.03125 189.078125 194.121094 195.417969 194.121094 C 205.433594 194.121094 213.695312 179.757812 213.695312 170.734375 C 213.695312 165.054688 212.359375 158.953125 205.433594 158.953125 Z M 170.546875 86.613281 C 169.042969 86.613281 169.042969 88.117188 169.878906 88.371094 C 171.546875 88.703125 175.050781 89.039062 175.050781 93.632812 C 175.136719 104.410156 175.136719 118.609375 174.71875 130.136719 C 174.636719 134.230469 173.382812 137.742188 169.878906 138.15625 C 168.542969 138.242188 168.542969 139.746094 169.460938 139.746094 L 185.152344 139.746094 C 185.988281 139.746094 186.320312 138.320312 185.238281 138.15625 C 182.816406 137.742188 178.890625 137.742188 178.644531 130.136719 C 178.3125 122.703125 178.058594 94.71875 178.058594 94.71875 L 217.371094 138.488281 L 220.625 138.488281 C 220.625 138.488281 220.625 97.5625 220.875 94.46875 C 221.125 90.878906 222.292969 88.871094 226.214844 88.621094 C 228.136719 88.457031 227.804688 86.699219 226.46875 86.699219 L 210.523438 86.699219 C 208.605469 86.699219 209.105469 88.457031 209.941406 88.457031 C 211.695312 88.703125 217.117188 89.289062 217.371094 94.554688 C 217.621094 102.152344 217.957031 125.875 217.957031 125.875 L 182.984375 86.699219 L 170.546875 86.699219 Z M 184.566406 163.300781 C 184.984375 163.300781 185.320312 163.046875 185.402344 162.632812 L 188.90625 151.519531 C 189.15625 150.855469 188.824219 150.433594 188.238281 150.433594 C 187.992188 150.433594 187.738281 150.519531 187.488281 150.769531 C 186.820312 151.4375 186.070312 152.105469 185.402344 152.105469 C 185.070312 152.105469 184.734375 151.859375 184.398438 151.605469 C 181.3125 147.765625 176.304688 147.179688 173.886719 147.179688 C 162.78125 147.179688 153.1875 154.445312 147.589844 163.386719 C 144.171875 168.644531 142.417969 174.492188 142.417969 180.257812 C 142.417969 189.445312 148.761719 194.542969 157.023438 194.542969 C 160.699219 194.542969 163.535156 194.121094 168.542969 192.035156 C 169.628906 191.617188 170.878906 191.113281 171.628906 191.113281 C 172.882812 191.113281 172.96875 192.957031 173.046875 194.625 C 173.046875 195.292969 173.46875 195.460938 173.886719 195.460938 C 174.21875 195.460938 174.550781 195.292969 174.71875 194.789062 L 179.394531 181.511719 C 179.726562 180.425781 179.308594 180.007812 178.890625 180.007812 C 178.222656 180.007812 177.890625 180.257812 177.390625 181.175781 C 175.304688 184.433594 173.800781 186.523438 166.539062 190.113281 C 163.453125 191.535156 159.945312 192.453125 157.105469 192.453125 C 150.929688 192.453125 148.507812 187.691406 148.507812 181.761719 C 148.507812 173.910156 152.183594 165.722656 157.859375 158.875 C 161.449219 154.363281 167.039062 149.265625 173.46875 149.265625 C 179.640625 149.265625 184.234375 153.863281 183.566406 162.296875 C 183.480469 162.964844 183.984375 163.300781 184.566406 163.300781 Z M 156.527344 131.390625 L 156.527344 94.46875 C 156.527344 89.875 159.78125 88.621094 163.285156 88.371094 C 164.617188 88.371094 164.785156 86.613281 163.035156 86.613281 L 141.25 86.613281 C 139.746094 86.613281 139.5 88.285156 141.003906 88.371094 C 144.257812 88.703125 148.175781 90.292969 148.175781 94.46875 L 148.175781 131.390625 C 148.175781 135.484375 146.671875 138.15625 141.835938 138.15625 C 139.914062 138.15625 140.417969 139.746094 141.835938 139.746094 L 163.285156 139.746094 C 164.371094 139.746094 164.703125 138.15625 162.867188 138.15625 C 158.277344 138.15625 156.527344 135.066406 156.527344 131.390625 Z M 105.027344 94.554688 C 105.027344 95.890625 104.609375 97.058594 104.027344 97.640625 C 102.023438 101.402344 99.183594 105.410156 95.09375 110.089844 C 84.664062 121.78125 70.726562 135.566406 65.96875 138.742188 C 64.464844 139.824219 64.046875 138.742188 64.046875 137.65625 C 64.046875 136.816406 64.046875 116.1875 64.378906 102.90625 C 64.714844 89.621094 74.644531 89.375 77.234375 89.121094 C 79.902344 88.871094 78.984375 86.367188 77.484375 86.367188 L 36.585938 86.367188 C 34.835938 86.367188 34.667969 88.957031 36.167969 88.957031 C 45.765625 88.957031 49.441406 94.886719 49.527344 99.230469 C 49.773438 105.578125 50.105469 163.386719 49.527344 177.082031 C 49.023438 190.363281 40.757812 190.78125 37.257812 191.03125 C 34.914062 191.199219 34.914062 193.621094 37.503906 193.621094 C 39.007812 193.621094 49.941406 193.289062 57.785156 193.289062 C 66.886719 193.289062 72.390625 193.289062 79.734375 193.621094 C 81.90625 193.707031 80.988281 190.78125 79.488281 190.78125 C 67.132812 190.78125 64.964844 183.179688 64.296875 177.917969 C 63.628906 172.738281 63.796875 148.851562 64.046875 146.007812 C 64.296875 143 66.886719 143.839844 67.96875 144.503906 C 74.0625 148.597656 111.289062 193.621094 111.289062 193.621094 L 141.335938 193.621094 C 143.085938 193.621094 142.667969 191.113281 141.335938 191.03125 C 136.160156 190.613281 131.316406 190.195312 124.390625 184.519531 C 117.714844 179.085938 79.238281 133.230469 79.238281 133.230469 C 79.238281 133.230469 96.347656 115.1875 109.617188 102.988281 C 122.472656 91.210938 129.648438 89.457031 131.148438 89.039062 C 132.738281 88.621094 132.488281 86.28125 130.316406 86.449219 C 126.8125 86.613281 119.632812 86.867188 114.625 86.867188 C 105.945312 86.867188 98.683594 86.28125 97.179688 86.28125 C 94.84375 86.28125 94.347656 88.871094 96.929688 89.289062 C 98.683594 89.621094 100.355469 89.789062 102.191406 90.460938 C 104.359375 91.292969 105.027344 92.882812 105.027344 94.554688 Z M 289.484375 211.664062 C 288.644531 211.664062 288.398438 213.167969 289.5625 213.167969 C 290.902344 213.167969 293.65625 213.503906 293.65625 217.511719 L 293.402344 249.757812 C 293.402344 253.265625 292.152344 256.1875 288.898438 256.1875 C 287.8125 256.1875 287.8125 257.609375 288.644531 257.609375 L 302.085938 257.609375 C 302.917969 257.609375 302.917969 256.1875 301.917969 256.1875 C 299.996094 256.1875 296.578125 255.351562 296.492188 249.757812 L 296.160156 216.929688 C 296.160156 216.929688 330.546875 257.359375 330.796875 257.609375 L 333.132812 257.609375 L 333.386719 218.847656 C 333.386719 215.007812 335.054688 213.003906 339.226562 213.003906 C 340.058594 213.003906 340.058594 211.664062 339.226562 211.664062 L 324.203125 211.664062 C 323.367188 211.664062 323.367188 213.003906 324.203125 213.003906 C 325.707031 213.003906 330.378906 213.25 330.464844 218.265625 L 330.796875 246.5 L 301.25 211.664062 Z M 248.003906 234.300781 C 248.003906 222.527344 253.425781 213.503906 263.441406 213.503906 C 272.371094 213.503906 279.132812 222.109375 279.132812 234.300781 C 279.132812 249.335938 273.042969 255.9375 263.441406 255.9375 C 254.09375 255.9375 248.003906 246.914062 248.003906 234.300781 Z M 263.441406 258.027344 C 276.878906 258.027344 286.476562 248.671875 286.476562 234.304688 C 286.476562 221.691406 277.128906 211.414062 263.441406 211.414062 C 250.085938 211.414062 240.492188 221.855469 240.492188 234.304688 C 240.492188 247.832031 249.585938 258.027344 263.441406 258.027344 Z M 199.089844 217.847656 C 199.089844 213.671875 201.511719 213.503906 207.101562 213.503906 C 216.871094 213.503906 226.800781 218.347656 226.800781 233.882812 C 226.800781 249.003906 218.539062 255.4375 207.601562 255.4375 L 205.265625 255.4375 C 202.34375 255.4375 199.089844 254.855469 199.089844 249.089844 Z M 187.824219 211.414062 C 186.320312 211.414062 186.570312 213.167969 187.488281 213.167969 C 189.242188 213.167969 192.164062 214.003906 192.164062 217.511719 L 192.164062 250.257812 C 192.164062 253.765625 191.328125 255.9375 187.242188 255.9375 C 186.238281 255.9375 186.238281 257.609375 187.15625 257.609375 L 209.023438 257.609375 C 218.621094 257.609375 234.476562 253.011719 234.476562 234.054688 C 234.476562 214.839844 221.460938 211.414062 208.773438 211.414062 Z M 133.738281 211.664062 C 132.90625 211.664062 132.652344 213.167969 133.824219 213.167969 C 135.160156 213.167969 137.910156 213.503906 137.910156 217.511719 L 137.664062 249.757812 C 137.664062 253.265625 136.410156 256.1875 133.152344 256.1875 C 132.066406 256.1875 132.066406 257.609375 132.90625 257.609375 L 146.339844 257.609375 C 147.175781 257.609375 147.175781 256.1875 146.175781 256.1875 C 144.257812 256.1875 140.832031 255.351562 140.75 249.757812 L 140.417969 216.929688 C 140.417969 216.929688 174.804688 257.359375 175.050781 257.609375 L 177.390625 257.609375 L 177.640625 218.847656 C 177.640625 215.007812 179.308594 213.003906 183.480469 213.003906 C 184.320312 213.003906 184.320312 211.664062 183.480469 211.664062 L 168.457031 211.664062 C 167.625 211.664062 167.625 213.003906 168.457031 213.003906 C 169.960938 213.003906 174.636719 213.25 174.71875 218.265625 L 175.050781 246.5 L 145.507812 211.664062 Z M 91.925781 234.300781 C 91.925781 222.527344 97.347656 213.503906 107.363281 213.503906 C 116.296875 213.503906 123.058594 222.109375 123.058594 234.300781 C 123.058594 249.335938 116.964844 255.9375 107.363281 255.9375 C 98.015625 255.9375 91.925781 246.914062 91.925781 234.300781 Z M 107.449219 258.027344 C 120.882812 258.027344 130.484375 248.671875 130.484375 234.304688 C 130.484375 221.691406 121.136719 211.414062 107.449219 211.414062 C 94.09375 211.414062 84.492188 221.855469 84.492188 234.304688 C 84.492188 247.832031 93.59375 258.027344 107.449219 258.027344 Z M 332.800781 282.835938 L 40.589844 282.835938 L 40.589844 289.183594 L 332.800781 289.183594 Z M 332.800781 273.980469 L 40.589844 273.980469 L 40.589844 276.738281 L 332.800781 276.738281 Z M 39.925781 211.746094 C 38.839844 211.746094 38.921875 213.25 39.925781 213.167969 C 43.851562 213.167969 46.1875 214.839844 46.1875 218.847656 L 46.1875 250.007812 C 46.1875 254.6875 42.933594 255.9375 40.34375 255.9375 C 39.507812 255.9375 39.171875 257.609375 40.589844 257.609375 L 80.738281 257.609375 L 83.160156 244.746094 C 83.410156 243.492188 82.074219 243.40625 81.738281 244.246094 C 78.152344 254.601562 70.804688 255.519531 63.046875 255.519531 C 55.03125 255.519531 53.195312 254.183594 53.195312 250.507812 L 53.195312 218.015625 C 53.195312 214.089844 56.867188 213.25 58.703125 213.25 C 59.875 213.25 59.539062 211.746094 58.621094 211.746094 Z M 39.925781 211.746094 " fill-opacity="1" fill-rule="evenodd"/></svg>